<svg xmlns="http://www.w3.org/2000/svg" viewBox="0 0 512 512">
  <defs>
    <linearGradient id="grad" x1="0%" y1="0%" x2="100%" y2="100%">
      <stop offset="0%" style="stop-color:#3b82f6;stop-opacity:1" />
      <stop offset="100%" style="stop-color:#8b5cf6;stop-opacity:1" />
    </linearGradient>
  </defs>
  <rect width="512" height="512" rx="128" fill="url(#grad)"/>
  <path d="M152.6,214.3c-23.4,0-42.4,19-42.4,42.4c0,23.4,19,42.4,42.4,42.4c14.6,0,27.5-7.4,35.3-18.7l30.6-44.5 c10.5-15.2,27.7-24.2,46.1-24.2c30.4,0,55.1,24.7,55.1,55.1s-24.7,55.1-55.1,55.1c-14.6,0-27.5-7.4-35.3-18.7l-12.6-18.3 c-4.5-6.5-13.4-8.1-19.9-3.6c-6.5,4.5-8.1,13.4-3.6,19.9l12.6,18.3c14.6,21.2,38.8,35,65.1,35c44.8,0,81.1-36.4,81.1-81.1 s-36.4-81.1-81.1-81.1c-26.4,0-50.5,13.8-65.1,35l-30.6,44.5c-10.5,15.2-27.7,24.2-46.1,24.2c-30.4,0-55.1-24.7-55.1-55.1 s24.7-55.1,55.1-55.1c14.6,0,27.5,7.4,35.3,18.7l5.6,8.1c4.5,6.5,13.4,8.1,19.9,3.6c6.5-4.5,8.1-13.4,3.6-19.9l-5.6-8.1 C203.2,228.1,179,214.3,152.6,214.3z" fill="white" stroke="white" stroke-width="10"/>
</svg>